<svg width="261" height="121" viewBox="0 0 261 121" fill="none" xmlns="http://www.w3.org/2000/svg">
<path d="M28.198 39.198C28.406 39.198 28.614 39.2413 28.822 39.328C29.03 39.3973 29.2293 39.5273 29.42 39.718L32.904 43.384C31.3787 45.3773 29.4633 46.8853 27.158 47.908C24.87 48.9133 22.1573 49.416 19.02 49.416C16.1427 49.416 13.56 48.9307 11.272 47.96C9.00134 46.972 7.06867 45.62 5.474 43.904C3.89667 42.1707 2.68333 40.1253 1.834 37.768C0.984668 35.3933 0.560001 32.8193 0.560001 30.046C0.560001 27.2207 1.01933 24.6293 1.938 22.272C2.85667 19.8973 4.148 17.852 5.812 16.136C7.476 14.42 9.46934 13.0853 11.792 12.132C14.1147 11.1787 16.6713 10.702 19.462 10.702C20.8833 10.702 22.218 10.832 23.466 11.092C24.7313 11.3347 25.91 11.6813 27.002 12.132C28.094 12.5653 29.0993 13.094 30.018 13.718C30.9367 14.342 31.7513 15.018 32.462 15.746L29.498 19.724C29.3073 19.9667 29.082 20.192 28.822 20.4C28.562 20.5907 28.198 20.686 27.73 20.686C27.418 20.686 27.1233 20.6167 26.846 20.478C26.5687 20.3393 26.274 20.1747 25.962 19.984C25.65 19.776 25.3033 19.5593 24.922 19.334C24.558 19.0913 24.116 18.8747 23.596 18.684C23.0933 18.476 22.4953 18.3027 21.802 18.164C21.126 18.0253 20.3287 17.956 19.41 17.956C17.954 17.956 16.6193 18.2247 15.406 18.762C14.21 19.2993 13.17 20.088 12.286 21.128C11.4193 22.1507 10.7433 23.416 10.258 24.924C9.79 26.4147 9.556 28.122 9.556 30.046C9.556 31.9873 9.816 33.712 10.336 35.22C10.8733 36.728 11.5927 38.002 12.494 39.042C13.4127 40.0647 14.4787 40.8447 15.692 41.382C16.9053 41.9193 18.2053 42.188 19.592 42.188C20.3893 42.188 21.1173 42.1533 21.776 42.084C22.4347 41.9973 23.05 41.8673 23.622 41.694C24.194 41.5033 24.7313 41.2607 25.234 40.966C25.7367 40.654 26.248 40.264 26.768 39.796C26.976 39.6227 27.2013 39.484 27.444 39.38C27.6867 39.2587 27.938 39.198 28.198 39.198Z" fill="url(#paint0_linear_1771_225)"/>
<path d="M68.9022 49H62.0902C61.3276 49 60.7122 48.8267 60.2442 48.48C59.7762 48.116 59.4209 47.6567 59.1782 47.102L56.9422 40.498H42.5382L40.3022 47.102C40.1116 47.5873 39.7649 48.0293 39.2622 48.428C38.7769 48.8093 38.1702 49 37.4422 49H30.5782L45.2422 11.118H54.2382L68.9022 49ZM44.5662 34.518H54.9142L51.4302 24.144C51.1702 23.4853 50.8929 22.714 50.5982 21.83C50.3036 20.9287 50.0089 19.958 49.7142 18.918C49.4369 19.9753 49.1509 20.9547 48.8562 21.856C48.5789 22.7573 48.3102 23.5373 48.0502 24.196L44.5662 34.518ZM43.3182 2.09601C43.9249 1.64534 44.7916 1.28134 45.9182 1.00401C47.0449 0.709343 48.2582 0.56201 49.5582 0.56201C51.5689 0.56201 53.0942 0.917342 54.1342 1.62801C55.1916 2.33867 55.7202 3.25734 55.7202 4.38401C55.7202 4.88668 55.6162 5.33734 55.4082 5.73601C55.2176 6.13468 54.9489 6.49001 54.6022 6.80201C54.2729 7.09668 53.8829 7.35668 53.4322 7.58201C52.9816 7.80734 52.4962 7.98934 51.9762 8.12801L51.4822 9.32401H47.6602V6.28201C48.5442 6.17801 49.1682 6.02201 49.5322 5.81401C49.8962 5.60601 50.0782 5.37201 50.0782 5.11201C50.0782 4.83467 49.9309 4.60934 49.6362 4.43601C49.3416 4.26267 48.9689 4.17601 48.5182 4.17601C48.2236 4.17601 47.9462 4.21068 47.6862 4.28001C47.4262 4.34934 47.1836 4.42734 46.9582 4.51401C46.7502 4.58334 46.5422 4.65267 46.3342 4.72201C46.1436 4.79134 45.9616 4.82601 45.7882 4.82601C45.5456 4.82601 45.3462 4.76534 45.1902 4.64401C45.0516 4.52268 44.9129 4.34934 44.7742 4.12401L43.3182 2.09601Z" fill="url(#paint1_linear_1771_225)"/>
<path d="M74.697 11.118C75.0783 11.118 75.399 11.1353 75.659 11.17C75.919 11.2047 76.153 11.274 76.361 11.378C76.569 11.4647 76.7683 11.5947 76.959 11.768C77.1496 11.9413 77.3663 12.1753 77.609 12.47L95.601 35.22C95.5316 34.492 95.4796 33.79 95.445 33.114C95.4103 32.4207 95.393 31.7707 95.393 31.164V11.118H103.141V49H98.565C97.889 49 97.317 48.896 96.849 48.688C96.3983 48.4627 95.9476 48.0813 95.497 47.544L77.635 24.976C77.687 25.6347 77.7303 26.2847 77.765 26.926C77.7996 27.55 77.817 28.1393 77.817 28.694V49H70.069V11.118H74.697Z" fill="url(#paint2_linear_1771_225)"/>
<path d="M141.743 49H132.903V32.984H117.511V49H108.671V11.118H117.511V26.952H132.903V11.118H141.743V49Z" fill="url(#paint3_linear_1771_225)"/>
<path d="M157.488 49V11.118H171.424C174.041 11.118 176.269 11.3607 178.106 11.846C179.943 12.3313 181.443 13.016 182.604 13.9C183.765 14.784 184.606 15.8587 185.126 17.124C185.663 18.3893 185.932 19.802 185.932 21.362C185.932 22.2113 185.811 23.0347 185.568 23.832C185.325 24.612 184.944 25.3487 184.424 26.042C183.904 26.7353 183.237 27.368 182.422 27.94C181.607 28.4947 180.628 28.98 179.484 29.396C181.98 30.0027 183.826 30.9907 185.022 32.36C186.218 33.712 186.816 35.454 186.816 37.586C186.816 39.198 186.504 40.6973 185.88 42.084C185.256 43.4707 184.337 44.684 183.124 45.724C181.928 46.7467 180.446 47.5527 178.678 48.142C176.91 48.714 174.891 49 172.62 49H157.488ZM166.276 32.932V42.37H172.464C173.625 42.37 174.57 42.2227 175.298 41.928C176.043 41.6333 176.624 41.252 177.04 40.784C177.456 40.316 177.742 39.7873 177.898 39.198C178.054 38.6087 178.132 38.0107 178.132 37.404C178.132 36.7107 178.037 36.0867 177.846 35.532C177.673 34.9773 177.361 34.5093 176.91 34.128C176.477 33.7467 175.896 33.452 175.168 33.244C174.44 33.036 173.521 32.932 172.412 32.932H166.276ZM166.276 27.056H170.852C171.823 27.056 172.698 26.9867 173.478 26.848C174.258 26.7093 174.917 26.4667 175.454 26.12C176.009 25.7733 176.425 25.2967 176.702 24.69C176.997 24.0833 177.144 23.3207 177.144 22.402C177.144 21.5007 177.031 20.7553 176.806 20.166C176.581 19.5593 176.234 19.074 175.766 18.71C175.298 18.346 174.7 18.086 173.972 17.93C173.261 17.774 172.412 17.696 171.424 17.696H166.276V27.056Z" fill="url(#paint4_linear_1771_225)"/>
<path d="M223.826 49H217.014C216.251 49 215.636 48.8267 215.168 48.48C214.7 48.116 214.344 47.6567 214.102 47.102L211.866 40.498H197.462L195.226 47.102C195.035 47.5873 194.688 48.0293 194.186 48.428C193.7 48.8093 193.094 49 192.366 49H185.502L200.166 11.118H209.162L223.826 49ZM199.49 34.518H209.838L206.354 24.144C206.094 23.4853 205.816 22.714 205.522 21.83C205.227 20.9287 204.932 19.958 204.638 18.918C204.36 19.9753 204.074 20.9547 203.78 21.856C203.502 22.7573 203.234 23.5373 202.974 24.196L199.49 34.518ZM216.572 0.458008L208.174 7.86801C207.966 8.05868 207.766 8.20601 207.576 8.31001C207.385 8.41401 207.186 8.49201 206.978 8.54401C206.77 8.59601 206.544 8.63068 206.302 8.64801C206.076 8.66534 205.816 8.67401 205.522 8.67401H199.646L204.56 1.65401C204.768 1.37667 204.967 1.16001 205.158 1.00401C205.366 0.830675 205.582 0.709342 205.808 0.640007C206.05 0.55334 206.319 0.501341 206.614 0.484009C206.926 0.466675 207.281 0.458008 207.68 0.458008H216.572Z" fill="url(#paint5_linear_1771_225)"/>
<path d="M260.903 30.046C260.903 32.7847 260.426 35.3327 259.473 37.69C258.537 40.0473 257.211 42.1013 255.495 43.852C253.779 45.5853 251.708 46.946 249.281 47.934C246.872 48.922 244.194 49.416 241.247 49.416C238.3 49.416 235.614 48.922 233.187 47.934C230.76 46.946 228.68 45.5853 226.947 43.852C225.231 42.1013 223.896 40.0473 222.943 37.69C222.007 35.3327 221.539 32.7847 221.539 30.046C221.539 27.3073 222.007 24.7593 222.943 22.402C223.896 20.0447 225.231 17.9993 226.947 16.266C228.68 14.5327 230.76 13.172 233.187 12.184C235.614 11.196 238.3 10.702 241.247 10.702C244.194 10.702 246.872 11.2047 249.281 12.21C251.708 13.198 253.779 14.5587 255.495 16.292C257.211 18.0253 258.537 20.0707 259.473 22.428C260.426 24.7853 260.903 27.3247 260.903 30.046ZM251.907 30.046C251.907 28.174 251.664 26.4927 251.179 25.002C250.694 23.494 249.992 22.22 249.073 21.18C248.172 20.14 247.062 19.3427 245.745 18.788C244.428 18.2333 242.928 17.956 241.247 17.956C239.548 17.956 238.032 18.2333 236.697 18.788C235.38 19.3427 234.262 20.14 233.343 21.18C232.442 22.22 231.748 23.494 231.263 25.002C230.778 26.4927 230.535 28.174 230.535 30.046C230.535 31.9353 230.778 33.634 231.263 35.142C231.748 36.6327 232.442 37.898 233.343 38.938C234.262 39.978 235.38 40.7753 236.697 41.33C238.032 41.8673 239.548 42.136 241.247 42.136C242.928 42.136 244.428 41.8673 245.745 41.33C247.062 40.7753 248.172 39.978 249.073 38.938C249.992 37.898 250.694 36.6327 251.179 35.142C251.664 33.634 251.907 31.9353 251.907 30.046Z" fill="url(#paint6_linear_1771_225)"/>
<path d="M7.294 72.118C7.67533 72.118 7.996 72.1353 8.256 72.17C8.516 72.2047 8.75 72.274 8.958 72.378C9.166 72.4647 9.36533 72.5947 9.556 72.768C9.74667 72.9413 9.96334 73.1753 10.206 73.47L28.198 96.22C28.1287 95.492 28.0767 94.79 28.042 94.114C28.0073 93.4207 27.99 92.7707 27.99 92.164V72.118H35.738V110H31.162C30.486 110 29.914 109.896 29.446 109.688C28.9953 109.463 28.5447 109.081 28.094 108.544L10.232 85.976C10.284 86.6347 10.3273 87.2847 10.362 87.926C10.3967 88.55 10.414 89.1393 10.414 89.694V110H2.666V72.118H7.294Z" fill="url(#paint7_linear_1771_225)"/>
<path d="M72.9359 106.36C70.9945 107.781 68.9232 108.813 66.7219 109.454C64.5379 110.095 62.2499 110.416 59.8579 110.416C56.7379 110.416 53.8952 109.931 51.3299 108.96C48.7819 107.972 46.5979 106.62 44.7779 104.904C42.9579 103.171 41.5539 101.125 40.5659 98.768C39.5779 96.3933 39.0839 93.8193 39.0839 91.046C39.0839 88.2207 39.5519 85.6293 40.4879 83.272C41.4239 80.8973 42.7585 78.852 44.4919 77.136C46.2425 75.42 48.3485 74.0853 50.8099 73.132C53.2885 72.1787 56.0532 71.702 59.1039 71.702C60.6812 71.702 62.1632 71.832 63.5499 72.092C64.9365 72.352 66.2105 72.7073 67.3719 73.158C68.5505 73.6087 69.6252 74.146 70.5959 74.77C71.5665 75.394 72.4332 76.07 73.1959 76.798L70.6479 80.672C70.2492 81.2787 69.7292 81.6513 69.0879 81.79C68.4639 81.9287 67.7879 81.7727 67.0599 81.322C66.3666 80.906 65.7079 80.5507 65.0839 80.256C64.4772 79.944 63.8532 79.6927 63.2119 79.502C62.5705 79.3113 61.8945 79.1727 61.1839 79.086C60.4732 78.9993 59.6759 78.956 58.7919 78.956C57.1452 78.956 55.6632 79.2507 54.3459 79.84C53.0285 80.412 51.9019 81.2267 50.9659 82.284C50.0472 83.3413 49.3365 84.6153 48.8339 86.106C48.3312 87.5793 48.0799 89.226 48.0799 91.046C48.0799 93.0567 48.3572 94.842 48.9119 96.402C49.4665 97.962 50.2465 99.2793 51.2519 100.354C52.2745 101.429 53.4879 102.252 54.8919 102.824C56.3132 103.379 57.8819 103.656 59.5979 103.656C60.6552 103.656 61.6085 103.552 62.4579 103.344C63.3245 103.136 64.1652 102.859 64.9799 102.512V96.766H61.2359C60.6812 96.766 60.2479 96.6187 59.9359 96.324C59.6239 96.0293 59.4679 95.6567 59.4679 95.206V90.37H72.9359V106.36Z" fill="url(#paint8_linear_1771_225)"/>
<path d="M110.449 110H103.637C102.875 110 102.259 109.827 101.791 109.48C101.323 109.116 100.968 108.657 100.725 108.102L98.4894 101.498H84.0854L81.8494 108.102C81.6587 108.587 81.3121 109.029 80.8094 109.428C80.3241 109.809 79.7174 110 78.9894 110H72.1254L86.7894 72.118H95.7854L110.449 110ZM86.1134 95.518H96.4614L92.9774 85.144C92.7174 84.4853 92.4401 83.714 92.1454 82.83C91.8507 81.9287 91.5561 80.958 91.2614 79.918C90.9841 80.9753 90.6981 81.9547 90.4034 82.856C90.1261 83.7573 89.8574 84.5373 89.5974 85.196L86.1134 95.518ZM101.401 69.674H95.5774C95.2654 69.674 94.8841 69.622 94.4334 69.518C93.9827 69.3967 93.5147 69.05 93.0294 68.478L91.7294 66.45C91.6427 66.3287 91.5561 66.216 91.4694 66.112C91.4001 66.008 91.3307 65.904 91.2614 65.8L90.7934 66.45L89.4934 68.478C89.0081 69.05 88.5401 69.3967 88.0894 69.518C87.6387 69.622 87.2574 69.674 86.9454 69.674H81.3814L87.7254 62.446H95.0574L101.401 69.674ZM95.4474 115.98C95.4474 116.535 95.3347 117.055 95.1094 117.54C94.8841 118.043 94.5721 118.476 94.1734 118.84C93.7921 119.221 93.3414 119.516 92.8214 119.724C92.3014 119.949 91.7467 120.062 91.1574 120.062C90.5854 120.062 90.0481 119.949 89.5454 119.724C89.0427 119.516 88.6007 119.221 88.2194 118.84C87.8554 118.476 87.5607 118.043 87.3354 117.54C87.1101 117.055 86.9974 116.535 86.9974 115.98C86.9974 115.408 87.1101 114.871 87.3354 114.368C87.5607 113.883 87.8554 113.449 88.2194 113.068C88.6007 112.704 89.0427 112.409 89.5454 112.184C90.0481 111.976 90.5854 111.872 91.1574 111.872C91.7467 111.872 92.3014 111.976 92.8214 112.184C93.3414 112.409 93.7921 112.704 94.1734 113.068C94.5721 113.449 94.8841 113.883 95.1094 114.368C95.3347 114.871 95.4474 115.408 95.4474 115.98Z" fill="url(#paint9_linear_1771_225)"/>
<path d="M120.404 97.338V110H111.616V72.118H124.98C127.649 72.118 129.938 72.4387 131.844 73.08C133.768 73.704 135.345 74.5707 136.576 75.68C137.824 76.7893 138.743 78.098 139.332 79.606C139.921 81.114 140.216 82.7433 140.216 84.494C140.216 86.3833 139.913 88.1167 139.306 89.694C138.699 91.2713 137.772 92.6233 136.524 93.75C135.276 94.8767 133.69 95.7607 131.766 96.402C129.86 97.026 127.597 97.338 124.98 97.338H120.404ZM120.404 90.708H124.98C127.268 90.708 128.915 90.162 129.92 89.07C130.925 87.978 131.428 86.4527 131.428 84.494C131.428 83.6273 131.298 82.8387 131.038 82.128C130.778 81.4173 130.38 80.8107 129.842 80.308C129.322 79.788 128.655 79.3893 127.84 79.112C127.043 78.8347 126.089 78.696 124.98 78.696H120.404V90.708Z" fill="url(#paint10_linear_1771_225)"/>
<path d="M160.385 102.98H174.425V110H151.597V72.118H160.385V102.98Z" fill="url(#paint11_linear_1771_225)"/>
<path d="M192.144 103.058C193.323 103.058 194.371 102.867 195.29 102.486C196.226 102.087 197.015 101.524 197.656 100.796C198.297 100.068 198.783 99.184 199.112 98.144C199.459 97.0867 199.632 95.8907 199.632 94.556V72.118H208.42V94.556C208.42 96.8787 208.039 99.0107 207.276 100.952C206.531 102.893 205.456 104.566 204.052 105.97C202.648 107.374 200.941 108.466 198.93 109.246C196.919 110.026 194.657 110.416 192.144 110.416C189.613 110.416 187.343 110.026 185.332 109.246C183.321 108.466 181.614 107.374 180.21 105.97C178.806 104.566 177.731 102.893 176.986 100.952C176.241 99.0107 175.868 96.8787 175.868 94.556V72.118H184.656V94.53C184.656 95.8647 184.821 97.0607 185.15 98.118C185.497 99.158 185.991 100.051 186.632 100.796C187.273 101.524 188.053 102.087 188.972 102.486C189.908 102.867 190.965 103.058 192.144 103.058ZM196.356 115.98C196.356 116.535 196.243 117.055 196.018 117.54C195.793 118.043 195.481 118.476 195.082 118.84C194.701 119.221 194.25 119.516 193.73 119.724C193.21 119.949 192.655 120.062 192.066 120.062C191.494 120.062 190.957 119.949 190.454 119.724C189.951 119.516 189.509 119.221 189.128 118.84C188.764 118.476 188.469 118.043 188.244 117.54C188.019 117.055 187.906 116.535 187.906 115.98C187.906 115.408 188.019 114.871 188.244 114.368C188.469 113.883 188.764 113.449 189.128 113.068C189.509 112.704 189.951 112.409 190.454 112.184C190.957 111.976 191.494 111.872 192.066 111.872C192.655 111.872 193.21 111.976 193.73 112.184C194.25 112.409 194.701 112.704 195.082 113.068C195.481 113.449 195.793 113.883 196.018 114.368C196.243 114.871 196.356 115.408 196.356 115.98Z" fill="url(#paint12_linear_1771_225)"/>
<path d="M240.687 72.118V79.086H230.027V110H221.239V79.086H210.579V72.118H240.687Z" fill="url(#paint13_linear_1771_225)"/>
<defs>
<linearGradient id="paint0_linear_1771_225" x1="0.999999" y1="11.5" x2="303" y2="99" gradientUnits="userSpaceOnUse">
<stop stop-color="#42BBE1"/>
<stop offset="1" stop-color="#4282E1"/>
</linearGradient>
<linearGradient id="paint1_linear_1771_225" x1="0.999999" y1="11.5" x2="303" y2="99" gradientUnits="userSpaceOnUse">
<stop stop-color="#42BBE1"/>
<stop offset="1" stop-color="#4282E1"/>
</linearGradient>
<linearGradient id="paint2_linear_1771_225" x1="0.999999" y1="11.5" x2="303" y2="99" gradientUnits="userSpaceOnUse">
<stop stop-color="#42BBE1"/>
<stop offset="1" stop-color="#4282E1"/>
</linearGradient>
<linearGradient id="paint3_linear_1771_225" x1="0.999999" y1="11.5" x2="303" y2="99" gradientUnits="userSpaceOnUse">
<stop stop-color="#42BBE1"/>
<stop offset="1" stop-color="#4282E1"/>
</linearGradient>
<linearGradient id="paint4_linear_1771_225" x1="0.999999" y1="11.5" x2="303" y2="99" gradientUnits="userSpaceOnUse">
<stop stop-color="#42BBE1"/>
<stop offset="1" stop-color="#4282E1"/>
</linearGradient>
<linearGradient id="paint5_linear_1771_225" x1="0.999999" y1="11.5" x2="303" y2="99" gradientUnits="userSpaceOnUse">
<stop stop-color="#42BBE1"/>
<stop offset="1" stop-color="#4282E1"/>
</linearGradient>
<linearGradient id="paint6_linear_1771_225" x1="0.999999" y1="11.5" x2="303" y2="99" gradientUnits="userSpaceOnUse">
<stop stop-color="#42BBE1"/>
<stop offset="1" stop-color="#4282E1"/>
</linearGradient>
<linearGradient id="paint7_linear_1771_225" x1="0.999999" y1="11.5" x2="303" y2="99" gradientUnits="userSpaceOnUse">
<stop stop-color="#42BBE1"/>
<stop offset="1" stop-color="#4282E1"/>
</linearGradient>
<linearGradient id="paint8_linear_1771_225" x1="0.999999" y1="11.5" x2="303" y2="99" gradientUnits="userSpaceOnUse">
<stop stop-color="#42BBE1"/>
<stop offset="1" stop-color="#4282E1"/>
</linearGradient>
<linearGradient id="paint9_linear_1771_225" x1="0.999999" y1="11.5" x2="303" y2="99" gradientUnits="userSpaceOnUse">
<stop stop-color="#42BBE1"/>
<stop offset="1" stop-color="#4282E1"/>
</linearGradient>
<linearGradient id="paint10_linear_1771_225" x1="0.999999" y1="11.5" x2="303" y2="99" gradientUnits="userSpaceOnUse">
<stop stop-color="#42BBE1"/>
<stop offset="1" stop-color="#4282E1"/>
</linearGradient>
<linearGradient id="paint11_linear_1771_225" x1="0.999999" y1="11.5" x2="303" y2="99" gradientUnits="userSpaceOnUse">
<stop stop-color="#42BBE1"/>
<stop offset="1" stop-color="#4282E1"/>
</linearGradient>
<linearGradient id="paint12_linear_1771_225" x1="0.999999" y1="11.5" x2="303" y2="99" gradientUnits="userSpaceOnUse">
<stop stop-color="#42BBE1"/>
<stop offset="1" stop-color="#4282E1"/>
</linearGradient>
<linearGradient id="paint13_linear_1771_225" x1="0.999999" y1="11.5" x2="303" y2="99" gradientUnits="userSpaceOnUse">
<stop stop-color="#42BBE1"/>
<stop offset="1" stop-color="#4282E1"/>
</linearGradient>
</defs>
</svg>
