<svg width="276" height="179" viewBox="0 0 276 179" fill="none" xmlns="http://www.w3.org/2000/svg">
<path d="M251.741 178.471L243.858 154.675C243.858 154.675 252.529 163.348 252.529 170.465L250.973 154.008C250.973 154.008 255.419 160.012 254.974 169.13C254.53 178.248 251.741 178.471 251.741 178.471Z" fill="#E6E6E6"/>
<path d="M82.4579 156.804L74.7646 133.58C74.7646 133.58 83.2268 142.045 83.2268 148.99L81.7079 132.929C81.7079 132.929 86.0475 138.789 85.6135 147.688C85.1796 156.587 82.4579 156.804 82.4579 156.804Z" fill="#E6E6E6"/>
<path d="M202.537 167.52C202.55 182.797 172.259 178.098 135.176 178.13C98.0925 178.162 68.2596 182.913 68.2464 167.636C68.2332 152.359 98.5132 149.011 135.597 148.979C172.68 148.947 202.524 152.243 202.537 167.52Z" fill="#EBF8FF"/>
<path d="M176.548 146.889H171.7L169.392 128.184H176.548V146.889Z" fill="#FED7E2"/>
<path d="M167.698 145.503H177.587V151.392H162.35V150.853C162.35 149.434 162.913 148.074 163.916 147.07C164.919 146.067 166.28 145.503 167.698 145.503V145.503Z" fill="#1A365D"/>
<path d="M212.183 174.497H207.335L205.028 155.792H212.183V174.497Z" fill="#FED7E2"/>
<path d="M203.334 173.111H213.222V179H197.985V178.461C197.985 177.042 198.549 175.682 199.552 174.678C200.555 173.675 201.915 173.111 203.334 173.111V173.111Z" fill="#1A365D"/>
<path d="M234.546 118.927C234.881 118.52 235.123 118.045 235.255 117.535C235.387 117.024 235.405 116.491 235.308 115.973C235.212 115.455 235.003 114.964 234.696 114.536C234.39 114.107 233.993 113.751 233.534 113.492L222.274 67.6097L215.074 70.7083L228.467 115.073C228.084 115.873 228.008 116.786 228.252 117.639C228.497 118.492 229.046 119.225 229.795 119.7C230.544 120.175 231.442 120.359 232.317 120.217C233.193 120.074 233.986 119.615 234.546 118.927V118.927Z" fill="#FED7E2"/>
<path d="M225.764 26.1973C225.362 25.777 224.873 25.4501 224.331 25.2394C223.789 25.0287 223.208 24.9394 222.628 24.9778C222.047 25.0162 221.483 25.1813 220.973 25.4616C220.464 25.7419 220.022 26.1305 219.679 26.6L202.251 28.6014L204.902 35.3257L220.752 32.3584C221.579 32.8825 222.569 33.085 223.535 32.9276C224.501 32.7702 225.376 32.2638 225.994 31.5044C226.611 30.7449 226.929 29.7852 226.887 28.8071C226.844 27.8289 226.445 26.9004 225.764 26.1973V26.1973Z" fill="#FED7E2"/>
<path d="M197.043 114.169L204.648 171.262L214.114 169.313C214.114 169.313 212.722 127.733 217.454 122.72C222.187 117.708 211.367 108.927 211.367 108.927L197.043 114.169Z" fill="#1A365D"/>
<path d="M200.187 98.4426L196.694 103.685C196.694 103.685 169.792 92.5019 169.792 110.324C169.792 128.147 168.253 140.242 167.696 141.078C167.139 141.913 174.138 144.081 177.478 143.524C177.478 143.524 181.6 114.791 181.322 113.12C181.322 113.12 207.71 126.062 212.722 124.948C217.733 123.834 218.917 119.891 219.752 117.663C220.587 115.435 219.403 97.7436 219.403 97.7436L202.699 92.6448L200.187 98.4426Z" fill="#1A365D"/>
<path d="M200.659 66.9693L199.663 65.774C199.663 65.774 188.51 40.6724 192.891 33.899C197.273 27.1256 216.392 26.1295 216.99 26.5279C217.587 26.9263 215.563 32.0994 216.957 34.49C216.957 34.49 202.146 37.702 201.15 38.1005C200.154 38.4989 208.824 53.2232 208.824 53.2232L207.829 62.1881L200.659 66.9693Z" fill="#CCCCCC"/>
<path d="M220.177 54.6178C220.177 54.6178 209.82 55.8131 209.422 55.8131C209.023 55.8131 208.824 53.2233 208.824 53.2233L199.663 65.7741C199.663 65.7741 195.149 102.185 196.344 101.588C197.539 100.99 219.579 104.423 219.778 102.829C219.977 101.235 219.579 93.2663 220.177 92.8678C220.774 92.4694 230.533 67.7662 230.533 67.7662C230.533 67.7662 229.537 62.5866 226.151 60.7936C222.766 59.0006 220.177 54.6178 220.177 54.6178Z" fill="#CCCCCC"/>
<path d="M227.346 64.3795L230.533 67.7662C230.533 67.7662 235.268 106.683 232.678 107.878C230.089 109.073 224.992 108.927 224.992 108.927L219.977 90.4772L227.346 64.3795Z" fill="#CCCCCC"/>
<path d="M210.225 52.1533C215.287 52.1533 219.392 48.0479 219.392 42.9837C219.392 37.9195 215.287 33.8141 210.225 33.8141C205.162 33.8141 201.058 37.9195 201.058 42.9837C201.058 48.0479 205.162 52.1533 210.225 52.1533Z" fill="#FED7E2"/>
<path d="M208.073 44.4145C207.95 42.5118 205.55 42.4466 203.644 42.4286C201.738 42.4106 199.459 42.4787 198.381 40.9066C197.668 39.8676 197.804 38.4252 198.393 37.3113C198.982 36.1974 199.95 35.3407 200.903 34.5165C203.363 32.3886 205.898 30.2777 208.852 28.9157C211.805 27.5537 215.266 27.0034 218.329 28.0967C222.092 29.4397 227.179 36.3532 227.618 40.3252C228.057 44.2972 226.47 48.3464 223.795 51.3145C221.12 54.2826 214.997 53.0851 211.144 54.141C213.487 50.8247 211.943 44.7988 208.19 43.2502L208.073 44.4145Z" fill="#1A365D"/>
<path d="M126.374 163.024C138.527 163.024 148.38 153.169 148.38 141.012C148.38 128.854 138.527 118.999 126.374 118.999C114.22 118.999 104.367 128.854 104.367 141.012C104.367 153.169 114.22 163.024 126.374 163.024Z" fill="#4299E1"/>
<path d="M111.677 117.435C108.627 117.435 105.643 116.551 103.085 114.89C100.527 113.228 98.505 110.861 97.2641 108.074L62.3441 29.4118C61.1874 26.8061 60.5756 23.9913 60.5464 21.1404C60.5172 18.2895 61.0712 15.4627 62.1743 12.8339C63.2774 10.205 64.9063 7.82959 66.961 5.85361C69.0156 3.87764 71.4525 2.34286 74.122 1.34361C76.7914 0.344365 79.6369 -0.0982383 82.4837 0.0430114C85.3304 0.184261 88.1181 0.906378 90.6756 2.16497C93.2331 3.42357 95.5062 5.19206 97.3553 7.36173C99.2043 9.5314 100.59 12.0564 101.428 14.7816L126.714 97.0504C127.438 99.4052 127.6 101.897 127.186 104.326C126.773 106.754 125.796 109.052 124.333 111.035C122.871 113.017 120.964 114.629 118.766 115.74C116.568 116.852 114.14 117.432 111.677 117.435H111.677Z" fill="#4299E1"/>
</svg>
