<svg width="16" height="16" viewBox="0 0 16 16" xmlns="http://www.w3.org/2000/svg">
<circle cx="8" cy="8" r="7.5" fill="white" stroke="currentColor"/>
<path d="M6.95548 10.6167C7.11829 10.4539 7.11539 10.1951 6.95548 10.0352L5.33023 8.40994L11.6626 8.40994C11.8894 8.40994 12.0725 8.22678 12.0725 8C12.0725 7.77322 11.8894 7.59005 11.6626 7.59005L5.33023 7.59005L6.95548 5.96481C7.11538 5.8049 7.11538 5.54324 6.95548 5.38333C6.79557 5.22342 6.5339 5.22342 6.37399 5.38333L4.04807 7.70926C3.88816 7.86917 3.88816 8.13083 4.04807 8.29074L6.374 10.6167C6.5339 10.7766 6.79557 10.7766 6.95548 10.6167Z" fill="currentColor"/>
</svg>
