<svg width="16" height="16" viewBox="0 0 16 16" xmlns="http://www.w3.org/2000/svg">
<circle cx="8" cy="8" r="7.5" fill="white" stroke="currentColor"/>
<path d="M9.04452 5.38333C8.88171 5.54614 8.88461 5.8049 9.04452 5.96481L10.6698 7.59005L4.33742 7.59005C4.11064 7.59006 3.92748 7.77322 3.92748 8C3.92748 8.22678 4.11064 8.40994 4.33742 8.40995L10.6698 8.40995L9.04452 10.0352C8.88461 10.1951 8.88461 10.4568 9.04452 10.6167C9.20443 10.7766 9.4661 10.7766 9.626 10.6167L11.9519 8.29074C12.1118 8.13083 12.1118 7.86917 11.9519 7.70926L9.626 5.38333C9.4661 5.22342 9.20443 5.22342 9.04452 5.38333Z" fill="currentColor"/>
</svg>
