<svg width="16" height="16" viewBox="0 0 16 16" xmlns="http://www.w3.org/2000/svg">
<circle cx="8" cy="8" r="7.5" fill="white" stroke="currentColor"/>
<path d="M5.38333 6.95548C5.54614 7.11829 5.8049 7.11539 5.96481 6.95548L7.59005 5.33023L7.59005 11.6626C7.59006 11.8894 7.77322 12.0725 8 12.0725C8.22678 12.0725 8.40994 11.8894 8.40995 11.6626L8.40995 5.33023L10.0352 6.95548C10.1951 7.11539 10.4568 7.11539 10.6167 6.95548C10.7766 6.79557 10.7766 6.5339 10.6167 6.374L8.29074 4.04807C8.13083 3.88816 7.86917 3.88816 7.70926 4.04807L5.38333 6.374C5.22342 6.5339 5.22342 6.79557 5.38333 6.95548Z" fill="currentColor"/>
</svg>
