<svg width="16" height="16" viewBox="0 0 16 16" fill="none" xmlns="http://www.w3.org/2000/svg">
<path d="M12.6133 4.00683C12.48 3.6135 12.1067 3.3335 11.6667 3.3335H4.33333C3.89333 3.3335 3.52667 3.6135 3.38667 4.00683L2 8.00016V13.3335C2 13.7002 2.3 14.0002 2.66667 14.0002H3.33333C3.7 14.0002 4 13.7002 4 13.3335V12.6668H12V13.3335C12 13.7002 12.3 14.0002 12.6667 14.0002H13.3333C13.7 14.0002 14 13.7002 14 13.3335V8.00016L12.6133 4.00683ZM4.56667 4.66683H11.4267L12.1467 6.74016H3.84667L4.56667 4.66683ZM12.6667 11.3335H3.33333V8.00016H12.6667V11.3335Z" fill="#718096"/>
<path d="M5 10.6665C5.55228 10.6665 6 10.2188 6 9.6665C6 9.11422 5.55228 8.6665 5 8.6665C4.44772 8.6665 4 9.11422 4 9.6665C4 10.2188 4.44772 10.6665 5 10.6665Z" fill="#718096"/>
<path d="M11 10.6665C11.5523 10.6665 12 10.2188 12 9.6665C12 9.11422 11.5523 8.6665 11 8.6665C10.4477 8.6665 10 9.11422 10 9.6665C10 10.2188 10.4477 10.6665 11 10.6665Z" fill="#718096"/>
</svg>
