<svg width="16" height="16" viewBox="0 0 16 16" xmlns="http://www.w3.org/2000/svg">
<path d="M12.6133 4.00671C12.48 3.61337 12.1067 3.33337 11.6667 3.33337H4.33333C3.89333 3.33337 3.52667 3.61337 3.38667 4.00671L2 8.00004V13.3334C2 13.7 2.3 14 2.66667 14H3.33333C3.7 14 4 13.7 4 13.3334V12.6667H12V13.3334C12 13.7 12.3 14 12.6667 14H13.3333C13.7 14 14 13.7 14 13.3334V8.00004L12.6133 4.00671ZM4.56667 4.66671H11.4267L12.1467 6.74004H3.84667L4.56667 4.66671ZM12.6667 11.3334H3.33333V8.00004H12.6667V11.3334Z" fill="currentColor"/>
<path d="M5 10.6666C5.55228 10.6666 6 10.2189 6 9.66663C6 9.11434 5.55228 8.66663 5 8.66663C4.44772 8.66663 4 9.11434 4 9.66663C4 10.2189 4.44772 10.6666 5 10.6666Z" fill="currentColor"/>
<path d="M11 10.6666C11.5523 10.6666 12 10.2189 12 9.66663C12 9.11434 11.5523 8.66663 11 8.66663C10.4477 8.66663 10 9.11434 10 9.66663C10 10.2189 10.4477 10.6666 11 10.6666Z" fill="currentColor"/>
</svg>
