<svg width="14" height="14" viewBox="0 0 14 14" xmlns="http://www.w3.org/2000/svg">
<path d="M11.0833 1.75H2.91667C2.275 1.75 1.75 2.275 1.75 2.91667V11.0833C1.75 11.725 2.275 12.25 2.91667 12.25H11.0833C11.725 12.25 12.25 11.725 12.25 11.0833V2.91667C12.25 2.275 11.725 1.75 11.0833 1.75ZM6.2475 9.5025C6.02 9.73 5.6525 9.73 5.425 9.5025L3.33083 7.40833C3.10333 7.18083 3.10333 6.81333 3.33083 6.58583C3.55833 6.35833 3.92583 6.35833 4.15333 6.58583L5.83333 8.26583L9.84667 4.2525C10.0742 4.025 10.4417 4.025 10.6692 4.2525C10.8967 4.48 10.8967 4.8475 10.6692 5.075L6.2475 9.5025Z" fill="currentColor"/>
</svg>
