<svg width="16" height="16" viewBox="0 0 16 16" xmlns="http://www.w3.org/2000/svg">
<path d="M7.99334 1.33325C4.31334 1.33325 1.33334 4.31992 1.33334 7.99992C1.33334 11.6799 4.31334 14.6666 7.99334 14.6666C11.68 14.6666 14.6667 11.6799 14.6667 7.99992C14.6667 4.31992 11.68 1.33325 7.99334 1.33325ZM8.00001 13.3333C5.05334 13.3333 2.66668 10.9466 2.66668 7.99992C2.66668 5.05325 5.05334 2.66659 8.00001 2.66659C10.9467 2.66659 13.3333 5.05325 13.3333 7.99992C13.3333 10.9466 10.9467 13.3333 8.00001 13.3333ZM7.85334 4.66658H7.81334C7.54668 4.66658 7.33334 4.87992 7.33334 5.14658V8.29325C7.33334 8.52658 7.45334 8.74658 7.66001 8.86658L10.4267 10.5266C10.6533 10.6599 10.9467 10.5933 11.08 10.3666C11.22 10.1399 11.1467 9.83992 10.9133 9.70658L8.33334 8.17325V5.14658C8.33334 4.87992 8.12001 4.66658 7.85334 4.66658Z" fill="currentColor"/>
</svg>
