<svg width="16" height="16" viewBox="0 0 16 16" xmlns="http://www.w3.org/2000/svg">
<path d="M13.6 2H3.8C3.03 2 2.4 2.6 2.4 3.33333V8.66667C2.4 10.14 3.653 11.3333 5.2 11.3333H9.4C10.947 11.3333 12.2 10.14 12.2 8.66667V6.66667H13.6C14.37 6.66667 15 6.06667 15 5.33333V3.33333C15 2.6 14.37 2 13.6 2ZM13.6 5.33333H12.2V3.33333H13.6V5.33333ZM1.7 14H12.9C13.285 14 13.6 13.7 13.6 13.3333C13.6 12.9667 13.285 12.6667 12.9 12.6667H1.7C1.315 12.6667 1 12.9667 1 13.3333C1 13.7 1.315 14 1.7 14Z" fill="currentColor"/>
</svg>
