<svg width="16" height="16" viewBox="0 0 16 16" fill="none" xmlns="http://www.w3.org/2000/svg">
<path d="M8.66658 4.66658H7.33325V7.33325H4.66658V8.66658H7.33325V11.3333H8.66658V8.66658H11.3333V7.33325H8.66658V4.66658ZM7.99992 1.33325C4.32659 1.33325 1.33325 4.32659 1.33325 7.99992C1.33325 11.6733 4.32659 14.6666 7.99992 14.6666C11.6733 14.6666 14.6666 11.6733 14.6666 7.99992C14.6666 4.32659 11.6733 1.33325 7.99992 1.33325ZM7.99992 13.3333C5.05992 13.3333 2.66659 10.9399 2.66659 7.99992C2.66659 5.05992 5.05992 2.66659 7.99992 2.66659C10.9399 2.66659 13.3333 5.05992 13.3333 7.99992C13.3333 10.9399 10.9399 13.3333 7.99992 13.3333Z" fill="#3182CE"/>
</svg>
