<svg width="24" height="24" viewBox="0 0 24 24" xmlns="http://www.w3.org/2000/svg">
<path d="M12 8.79995C10.232 8.79995 8.79995 10.232 8.79995 12C8.79995 13.768 10.232 15.2 12 15.2C13.768 15.2 15.2 13.768 15.2 12C15.2 10.232 13.768 8.79995 12 8.79995ZM19.152 11.2C18.784 7.86395 16.136 5.21595 12.8 4.84795V3.19995H11.2V4.84795C7.86395 5.21595 5.21595 7.86395 4.84795 11.2H3.19995V12.8H4.84795C5.21595 16.136 7.86395 18.784 11.2 19.152V20.8H12.8V19.152C16.136 18.784 18.784 16.136 19.152 12.8H20.8V11.2H19.152ZM12 17.6C8.90395 17.6 6.39995 15.096 6.39995 12C6.39995 8.90395 8.90395 6.39995 12 6.39995C15.096 6.39995 17.6 8.90395 17.6 12C17.6 15.096 15.096 17.6 12 17.6Z" fill="currentColor"/>
</svg>
