<svg width="16" height="16" viewBox="0 0 16 16" fill="none" xmlns="http://www.w3.org/2000/svg">
<path d="M7.33341 12.0001C7.33341 12.7334 6.73341 13.3334 6.00008 13.3334C5.26675 13.3334 4.66675 12.7334 4.66675 12.0001C4.66675 11.2667 5.26675 10.6667 6.00008 10.6667C6.73341 10.6667 7.33341 11.2667 7.33341 12.0001ZM6.00008 6.66675C5.26675 6.66675 4.66675 7.26675 4.66675 8.00008C4.66675 8.73342 5.26675 9.33342 6.00008 9.33342C6.73341 9.33342 7.33341 8.73342 7.33341 8.00008C7.33341 7.26675 6.73341 6.66675 6.00008 6.66675ZM6.00008 2.66675C5.26675 2.66675 4.66675 3.26675 4.66675 4.00008C4.66675 4.73341 5.26675 5.33341 6.00008 5.33341C6.73341 5.33341 7.33341 4.73341 7.33341 4.00008C7.33341 3.26675 6.73341 2.66675 6.00008 2.66675ZM10.0001 5.33341C10.7334 5.33341 11.3334 4.73341 11.3334 4.00008C11.3334 3.26675 10.7334 2.66675 10.0001 2.66675C9.26675 2.66675 8.66675 3.26675 8.66675 4.00008C8.66675 4.73341 9.26675 5.33341 10.0001 5.33341ZM10.0001 6.66675C9.26675 6.66675 8.66675 7.26675 8.66675 8.00008C8.66675 8.73342 9.26675 9.33342 10.0001 9.33342C10.7334 9.33342 11.3334 8.73342 11.3334 8.00008C11.3334 7.26675 10.7334 6.66675 10.0001 6.66675ZM10.0001 10.6667C9.26675 10.6667 8.66675 11.2667 8.66675 12.0001C8.66675 12.7334 9.26675 13.3334 10.0001 13.3334C10.7334 13.3334 11.3334 12.7334 11.3334 12.0001C11.3334 11.2667 10.7334 10.6667 10.0001 10.6667Z" fill="#718096"/>
</svg>
