<svg width="16" height="16" viewBox="0 0 16 16" xmlns="http://www.w3.org/2000/svg">
<path d="M2 13.4436C2 13.7491 2.24545 13.9945 2.55091 13.9945H9.63636C9.94182 13.9945 10.1873 13.7491 10.1873 13.4436V12.9091H2V13.4436ZM6.09091 6.35818C4.04545 6.35818 2 7.45455 2 9.63636H10.1818C10.1818 7.45455 8.13636 6.35818 6.09091 6.35818ZM3.42909 8.54545C4.03455 7.7 5.32182 7.44909 6.09091 7.44909C6.86 7.44909 8.14727 7.7 8.75273 8.54545H3.42909ZM2 10.7273H10.1818V11.8182H2V10.7273ZM11.2727 4.18182V2H10.1818V4.18182H7.45455L7.58 5.27273H12.7945L12.0309 12.9091H11.2727V14H12.2109C12.6691 14 13.0455 13.6455 13.1 13.1982L14 4.18182H11.2727Z" fill="currentColor"/>
</svg>
