<svg width="24" height="24" viewBox="0 0 24 24" xmlns="http://www.w3.org/2000/svg">
<path d="M14.3613 5.67837L9.9144 4.10246C9.54086 3.96739 9.13174 3.96739 8.7582 4.09346L5.20956 5.30015C4.48916 5.5523 4 6.23669 4 7.01113V17.6823C4 18.952 5.25403 19.8165 6.41912 19.3572L9.02501 18.3306C9.22068 18.2496 9.44302 18.2496 9.63869 18.3216L14.0856 19.8975C14.4591 20.0326 14.8683 20.0326 15.2418 19.9065L18.7904 18.6998C19.5108 18.4567 20 17.7633 20 16.9889V6.31774C20 5.04801 18.746 4.18351 17.5809 4.64277L14.975 5.66936C14.7793 5.7414 14.5659 5.75041 14.3613 5.67837ZM14.6726 18.2046L9.3363 16.3045V5.79544L14.6726 7.69553V18.2046Z" fill="currentColor"/>
</svg>
