<svg width="16" height="16" viewBox="0 0 16 16" xmlns="http://www.w3.org/2000/svg">
<path d="M2.78 7.33337C2.74667 7.33337 2.70667 7.33337 2.66667 7.33337H2.78ZM8.94 3.33337H6V4.66671H8.39333L9.72667 6.00004H7.33333L4.66667 7.33337L3.33333 6.00004H0V7.33337H2.66667C1.19333 7.33337 0 8.52671 0 10C0 11.4734 1.19333 12.6667 2.66667 12.6667C4.14 12.6667 5.33333 11.4734 5.33333 10L6.66667 11.3334H8.66667L10.9933 7.26671L11.6667 7.94004C11.06 8.42671 10.6667 9.16671 10.6667 10C10.6667 11.4734 11.86 12.6667 13.3333 12.6667C14.8067 12.6667 16 11.4734 16 10C16 8.52671 14.8067 7.33337 13.3333 7.33337C13.2133 7.33337 13.0933 7.35337 12.98 7.36671L11.6067 6.00004H13.3333V4.00004L10.8533 5.24004L8.94 3.33337ZM13.3333 11.3334C12.6 11.3334 12 10.7334 12 10C12 9.26671 12.6 8.66671 13.3333 8.66671C14.0667 8.66671 14.6667 9.26671 14.6667 10C14.6667 10.7334 14.0667 11.3334 13.3333 11.3334ZM2.66667 11.3334C1.93333 11.3334 1.33333 10.7334 1.33333 10C1.33333 9.26671 1.93333 8.66671 2.66667 8.66671C3.4 8.66671 4 9.26671 4 10C4 10.7334 3.4 11.3334 2.66667 11.3334Z" fill="currentColor"/>
</svg>
