<svg width="16" height="16" viewBox="0 0 16 16" fill="none" xmlns="http://www.w3.org/2000/svg">
<path d="M14 5.12455V10.4545C14 11.1045 13.46 11.6364 12.8 11.6364H4.4L2 14V3.36364C2 2.71364 2.54 2.18182 3.2 2.18182H9.26C9.224 2.37091 9.2 2.57182 9.2 2.77273C9.2 4.40364 10.544 5.72727 12.2 5.72727C12.878 5.72727 13.496 5.49682 14 5.12455ZM10.4 2.77273C10.4 3.75364 11.204 4.54545 12.2 4.54545C13.196 4.54545 14 3.75364 14 2.77273C14 1.79182 13.196 1 12.2 1C11.204 1 10.4 1.79182 10.4 2.77273Z" fill="#323232"/>
</svg>
