<svg width="16" height="16" viewBox="0 0 16 16" xmlns="http://www.w3.org/2000/svg">
<path d="M13.0999 6.02667L9.8732 5.74667L8.6132 2.78C8.38653 2.24 7.6132 2.24 7.38653 2.78L6.12653 5.75333L2.90653 6.02667C2.31987 6.07333 2.07987 6.80667 2.52653 7.19333L4.9732 9.31333L4.23987 12.46C4.10653 13.0333 4.72653 13.4867 5.2332 13.18L7.99987 11.5133L10.7665 13.1867C11.2732 13.4933 11.8932 13.04 11.7599 12.4667L11.0265 9.31333L13.4732 7.19333C13.9199 6.80667 13.6865 6.07333 13.0999 6.02667ZM7.99987 10.2667L5.4932 11.78L6.15987 8.92667L3.94653 7.00667L6.86653 6.75333L7.99987 4.06667L9.13987 6.76L12.0599 7.01333L9.84653 8.93333L10.5132 11.7867L7.99987 10.2667Z" fill="currentColor"/>
</svg>
