<svg width="12" height="12" viewBox="0 0 12 12" xmlns="http://www.w3.org/2000/svg">
<path d="M2.23482 10.5H9.76482C10.5348 10.5 11.0148 9.66497 10.6298 8.99997L6.86482 2.49497C6.47982 1.82997 5.51982 1.82997 5.13482 2.49497L1.36982 8.99997C0.984817 9.66497 1.46482 10.5 2.23482 10.5ZM5.99982 6.99997C5.72482 6.99997 5.49982 6.77497 5.49982 6.49997V5.49997C5.49982 5.22497 5.72482 4.99997 5.99982 4.99997C6.27482 4.99997 6.49982 5.22497 6.49982 5.49997V6.49997C6.49982 6.77497 6.27482 6.99997 5.99982 6.99997ZM6.49982 8.99997H5.49982V7.99997H6.49982V8.99997Z" fill="currentColor"/>
</svg>
